Patient4_TMGait_0pt3_02_right_07_GRF.mot
version=1
nRows=65
nColumns=19
inDegrees=no
endheader
time	F1x	F1y	F1z	M1x	M1y	M1z	F2x	F2y	F2z	M2x	M2y	M2z	EC1x	EC1y	EC1z	EC2x	EC2y	EC2z
12.48	-15.0289	785.3742	45.3988	-325.3121	-50.7451	774.1905	-3.9626	10.2215	-1.1698	3.6527	3.029	2.4097	-0.0592	0.0182	-0.0073	-0.0462	0.0165	0.9585
12.5005	-16.7353	806.6021	45.9358	-334.1666	-51.2708	792.8626	-3.2344	8.2473	-1.0556	2.9385	2.4782	2.7629	-0.0592	0.0182	-0.0073	-0.0462	0.0165	0.9585
12.521	-18.3046	831.757	46.598	-344.6343	-51.8022	814.5587	-2.4097	6.1016	-0.84051	2.1713	1.8427	2.7136	-0.0592	0.0182	-0.0073	-0.0462	0.0165	0.9585
12.5415	-19.4633	858.4437	47.3273	-355.7125	-52.2043	836.9601	-1.6311	4.1533	-0.60202	1.4802	1.2423	2.4505	-0.0592	0.0182	-0.0073	-0.0462	0.0165	0.9585
12.562	-19.9579	883.1195	48.0708	-365.9131	-52.3473	856.7442	-0.98988	2.5959	-0.38738	0.93191	0.74505	2.1215	-0.0592	0.0182	-0.0073	-0.0462	0.0165	0.9585
12.5825	-19.6172	901.6038	48.7826	-373.4758	-52.1393	870.0785	-0.51767	1.4769	-0.219	0.54182	0.37257	1.8108	-0.0592	0.0182	-0.0073	-0.0462	0.0165	0.9585
12.603	-18.4179	909.9546	49.4054	-376.743	-51.5338	873.4389	-0.20842	0.7493	-0.10159	0.29168	0.11948	1.5501	-0.0592	0.0182	-0.0073	-0.0462	0.0165	0.9585
12.6235	-16.4393	905.5302	49.8548	-374.6145	-50.4927	864.5533	-0.033629	0.31169	-0.027152	0.14352	-0.034657	1.3263	-0.0592	0.0182	-0.0073	-0.0462	0.0165	0.9585
12.644	-13.789	887.7555	50.0266	-366.8737	-48.9668	843.0667	0.042655	0.037011	0.017754	0.050491	-0.11415	1.0939	-0.0592	0.0182	-0.0073	-0.0462	0.0165	0.9585
12.6645	-10.5784	858.3403	49.8234	-354.2738	-46.9118	810.7016	0.052026	-0.21033	0.045251	-0.035598	-0.14208	0.7836	-0.0592	0.0182	-0.0073	-0.0462	0.0165	0.9585
12.685	-6.9009	821.0197	49.1879	-338.4169	-44.3111	770.9749	0.020078	-0.56087	0.066006	-0.15984	-0.14118	0.31653	-0.0592	0.0182	-0.0073	-0.0462	0.0165	0.9585
12.7055	-2.8239	780.8674	48.1321	-321.4566	-41.1999	728.5494	-0.029718	-1.1303	0.09004	-0.36275	-0.13553	-0.38485	-0.0592	0.0182	-0.0073	-0.0462	0.0165	0.9585
12.726	1.6153	743.3258	46.7367	-305.687	-37.662	688.3474	-0.07502	-2.0068	0.12592	-0.67516	-0.14252	-1.3863	-0.0592	0.0182	-0.0073	-0.0462	0.0165	0.9585
12.7465	6.4082	713.2365	45.132	-293.1379	-33.8094	654.6972	-0.095817	-3.232	0.17885	-1.1108	-0.17824	-2.7188	-0.0592	0.0182	-0.0073	-0.0462	0.0165	0.9585
12.767	11.5381	694.0021	43.4882	-285.2191	-29.7907	630.6218	-0.073999	-4.7655	0.24959	-1.6549	-0.25552	-4.3368	-0.0592	0.0182	-0.0073	-0.0462	0.0165	0.9585
12.7875	16.9333	686.9692	42.0091	-282.4592	-25.8084	617.3355	0.010905	-6.4432	0.33673	-2.2489	-0.38249	-6.076	-0.0592	0.0182	-0.0073	-0.0462	0.0165	0.9585
12.808	22.4341	691.2091	40.9148	-284.4174	-22.121	614.0882	0.18251	-7.9242	0.43427	-2.7721	-0.55514	-7.5967	-0.0592	0.0182	-0.0073	-0.0462	0.0165	0.9585
12.8285	27.7906	703.8212	40.3877	-289.8206	-18.996	618.45	0.46015	-8.6311	0.52703	-3.0193	-0.75444	-8.318	-0.0592	0.0182	-0.0073	-0.0462	0.0165	0.9585
12.849	32.7374	720.6658	40.5164	-296.8812	-16.6319	626.9423	0.8528	-7.6986	0.58573	-2.6831	-0.94624	-7.3644	-0.0592	0.0182	-0.0073	-0.0462	0.0165	0.9585
12.8695	37.0461	737.2437	41.2825	-303.6737	-15.1231	635.7954	1.3506	-3.9475	0.56377	-1.3442	-1.077	-3.5435	-0.0592	0.0182	-0.0073	-0.0462	0.0165	0.9585
12.89	40.5308	749.4474	42.5765	-308.4603	-14.4715	641.5926	1.9097	4.0699	0.39471	1.5131	-1.0634	4.6046	-0.0592	0.0182	-0.0073	-0.0462	0.0165	0.9585
12.9105	43.0412	754.0872	44.1942	-309.9215	-14.5839	641.7022	2.4335	17.9216	-0.0016856	6.4458	-0.78937	18.6671	-0.0592	0.0182	-0.0073	-0.0462	0.0165	0.9585
12.931	44.4668	749.1452	45.8238	-307.2688	-15.2587	634.4675	2.7423	38.9974	-0.71641	13.9463	-0.10041	40.0582	-0.0592	0.0182	-0.0073	-0.0462	0.0165	0.9585
12.9515	44.768	733.7481	47.096	-300.226	-16.2149	619.1602	2.4456	68.103	-1.8484	24.2981	1.2387	69.5985	-0.0592	0.0182	-0.0073	-0.0462	0.0165	0.9585
12.972	44.0125	707.9729	47.69	-288.9192	-17.1576	595.7917	0.93628	105.0183	-3.5142	37.4159	3.5527	107.0656	-0.0592	0.0182	-0.0073	-0.0462	0.0165	0.9585
12.9925	42.3758	672.7208	47.423	-273.7936	-17.8494	565.0117	-1.9846	148.2216	-5.8247	52.7419	7.0173	150.8836	-0.0592	0.0182	-0.0073	-0.0462	0.0165	0.9585
13.013	40.103	629.6744	46.2708	-255.5862	-18.1481	528.1034	-5.9281	194.9642	-8.8979	69.2717	11.6039	198.1673	-0.0592	0.0182	-0.0073	-0.0462	0.0165	0.9585
13.0335	37.4901	581.2206	44.338	-235.2996	-17.9931	486.9348	-10.3057	242.7362	-12.5893	86.0993	16.9485	246.2622	-0.0592	0.0182	-0.0073	-0.0462	0.0165	0.9585
13.054	34.8103	530.0617	41.7994	-214.0472	-17.3892	443.6585	-14.5825	290.2269	-16.4874	102.7707	22.4492	293.7718	-0.0592	0.0182	-0.0073	-0.0462	0.0165	0.9585
13.0745	32.2156	478.5904	38.834	-192.807	-16.3972	400.2162	-18.3368	336.6055	-20.145	119.0138	27.5171	339.8118	-0.0592	0.0182	-0.0073	-0.0462	0.0165	0.9585
13.095	29.7207	428.5413	35.5925	-172.2802	-15.1166	358.0442	-21.2831	381.0479	-23.2364	134.5536	31.7359	383.5286	-0.0592	0.0182	-0.0073	-0.0462	0.0165	0.9585
13.1155	27.2524	380.9428	32.2082	-152.8702	-13.6746	318.0137	-23.293	422.7251	-25.6398	149.0998	34.9462	424.096	-0.0592	0.0182	-0.0073	-0.0462	0.0165	0.9585
13.136	24.704	336.2018	28.7998	-134.7188	-12.2055	280.4775	-24.3867	461.02	-27.4386	162.4226	37.2428	460.9232	-0.0592	0.0182	-0.0073	-0.0462	0.0165	0.9585
13.1565	21.9997	294.2708	25.4685	-117.7794	-10.8244	245.3956	-24.6868	495.7519	-28.8416	174.4417	38.874	493.8585	-0.0592	0.0182	-0.0073	-0.0462	0.0165	0.9585
13.177	19.1149	254.8744	22.2926	-101.9151	-9.6108	212.5247	-24.3563	527.2275	-30.0392	185.2558	40.0802	523.2381	-0.0592	0.0182	-0.0073	-0.0462	0.0165	0.9585
13.1975	16.0684	217.7364	19.3268	-86.9922	-8.6062	181.612	-23.5464	556.0544	-31.1191	195.0829	40.9986	549.7023	-0.0592	0.0182	-0.0073	-0.0462	0.0165	0.9585
13.218	12.9115	182.804	16.6051	-72.9717	-7.8223	152.5889	-22.3769	582.7758	-32.0843	204.1348	41.674	573.8276	-0.0592	0.0182	-0.0073	-0.0462	0.0165	0.9585
13.2385	9.7305	150.4121	14.1524	-59.9769	-7.2495	125.7094	-20.9479	607.6414	-32.8786	212.5368	42.0901	595.9117	-0.0592	0.0182	-0.0073	-0.0462	0.0165	0.9585
13.259	6.6653	121.2296	11.9963	-48.274	-6.8578	101.4988	-19.363	630.5874	-33.4047	220.3121	42.1933	615.9627	-0.0592	0.0182	-0.0073	-0.0462	0.0165	0.9585
13.2795	3.8756	95.9435	10.1636	-38.1403	-6.604	80.4988	-17.7324	651.2716	-33.5648	227.3772	41.9269	633.7374	-0.0592	0.0182	-0.0073	-0.0462	0.0165	0.9585
13.3	1.4651	74.9001	8.6576	-29.7158	-6.4445	62.9792	-16.164	669.2044	-33.33	233.5679	41.2925	648.8562	-0.0592	0.0182	-0.0073	-0.0462	0.0165	0.9585
13.3205	-0.53797	57.9487	7.4446	-22.9401	-6.3359	48.8129	-14.7443	683.996	-32.8035	238.7121	40.4014	661.023	-0.0592	0.0182	-0.0073	-0.0462	0.0165	0.9585
13.341	-2.1524	44.4997	6.4558	-17.577	-6.2275	37.5285	-13.5582	695.6248	-32.2231	242.7228	39.4888	670.2854	-0.0592	0.0182	-0.0073	-0.0462	0.0165	0.9585
13.3615	-3.3851	33.7411	5.6012	-13.3008	-6.053	28.4739	-12.7183	704.5868	-31.8889	245.6635	38.8585	677.1844	-0.0592	0.0182	-0.0073	-0.0462	0.0165	0.9585
13.382	-4.1979	24.9077	4.7905	-9.8037	-5.7307	21.0291	-12.3328	711.7748	-32.085	247.7266	38.8046	682.6357	-0.0592	0.0182	-0.0073	-0.0462	0.0165	0.9585
13.4025	-4.5161	17.4765	3.9564	-6.8731	-5.1796	14.7715	-12.4722	718.2301	-33.0247	249.1733	39.5555	687.6781	-0.0592	0.0182	-0.0073	-0.0462	0.0165	0.9585
13.423	-4.2771	11.2343	3.077	-4.4185	-4.3585	9.5284	-13.1517	724.9453	-34.7866	250.2919	41.2038	693.2617	-0.0592	0.0182	-0.0073	-0.0462	0.0165	0.9585
13.4435	-3.5535	6.2095	2.1973	-2.4449	-3.3352	5.3131	-14.3027	732.7687	-37.2772	251.3905	43.6558	700.1239	-0.0592	0.0182	-0.0073	-0.0462	0.0165	0.9585
13.464	-2.6148	2.4942	1.4177	-0.98343	-2.3031	2.1953	-15.7605	742.4231	-40.2475	252.8151	46.6368	708.7942	-0.0592	0.0182	-0.0073	-0.0462	0.0165	0.9585
13.4845	-1.692	0.011229	0.80183	-0.0029244	-1.4116	0.10949	-17.3042	754.5582	-43.3511	254.9554	49.7599	719.6779	-0.0592	0.0182	-0.0073	-0.0462	0.0165	0.9585
13.505	-0.90716	-1.4544	0.35874	0.57794	-0.71969	-1.1278	-18.7225	769.7023	-46.1966	258.1989	52.5952	733.0516	-0.0592	0.0182	-0.0073	-0.0462	0.0165	0.9585
13.5255	-0.30709	-2.1619	0.067961	0.85827	-0.23179	-1.7318	-19.8505	788.0031	-48.4054	262.7982	54.7338	748.8551	-0.0592	0.0182	-0.0073	-0.0462	0.0165	0.9585
13.546	0.107	-2.355	-0.10599	0.9353	0.080054	-1.9027	-20.5649	808.933	-49.6866	268.7261	55.8538	766.4325	-0.0592	0.0182	-0.0073	-0.0462	0.0165	0.9585
13.5665	0.36096	-2.2343	-0.1979	0.8903	0.25544	-1.804	-20.7605	831.148	-49.8905	275.5966	55.7638	784.4209	-0.0592	0.0182	-0.0073	-0.0462	0.0165	0.9585
13.587	0.49194	-1.957	-0.23493	0.7857	0.3324	-1.5622	-20.3743	852.5819	-49.0453	282.6929	54.4477	800.8685	-0.0592	0.0182	-0.0073	-0.0462	0.0165	0.9585
13.6075	0.53489	-1.6411	-0.23614	0.66701	0.34201	-1.2769	-19.4108	870.798	-47.325	289.1027	52.0504	813.5824	-0.0592	0.0182	-0.0073	-0.0462	0.0165	0.9585
13.628	0.51912	-1.3721	-0.21424	0.56562	0.30615	-1.0237	-17.9119	883.4467	-44.9829	293.9039	48.8143	820.5307	-0.0592	0.0182	-0.0073	-0.0462	0.0165	0.9585
13.6485	0.46533	-1.2148	-0.17657	0.50578	0.23891	-0.86024	-15.9203	888.702	-42.2957	296.3437	45.0153	820.211	-0.0592	0.0182	-0.0073	-0.0462	0.0165	0.9585
13.669	0.38593	-1.2205	-0.12871	0.50934	0.15146	-0.84319	-13.4583	885.5877	-39.5261	295.9774	40.922	811.9145	-0.0592	0.0182	-0.0073	-0.0462	0.0165	0.9585
13.6895	0.29228	-1.4309	-0.074775	0.5958	0.053793	-1.0254	-10.5462	874.1653	-36.8881	292.7473	36.7684	795.8718	-0.0592	0.0182	-0.0073	-0.0462	0.0165	0.9585
13.71	0.19511	-1.8805	-0.018945	0.78135	-0.044061	-1.4523	-7.2082	855.5573	-34.5292	286.997	32.7365	773.2485	-0.0592	0.0182	-0.0073	-0.0462	0.0165	0.9585
13.7305	0.10371	-2.5882	0.029473	1.0745	-0.12778	-2.1537	-3.4581	831.7407	-32.525	279.3941	28.9337	745.9359	-0.0592	0.0182	-0.0073	-0.0462	0.0165	0.9585
13.751	0.035351	-3.5439	0.056816	1.4694	-0.17594	-3.121	0.68281	805.1508	-30.888	270.7787	25.4018	716.2014	-0.0592	0.0182	-0.0073	-0.0462	0.0165	0.9585
13.7715	0.018859	-4.6823	0.043259	1.9368	-0.1565	-4.288	5.1484	778.2579	-29.5984	262.004	22.1553	686.3219	-0.0592	0.0182	-0.0073	-0.0462	0.0165	0.9585
13.792	0.095399	-5.8498	-0.040655	2.4114	-0.024606	-5.5039	9.821	753.2747	-28.6307	253.8291	19.208	658.3313	-0.0592	0.0182	-0.0073	-0.0462	0.0165	0.9585
